<?xml version="1.0" encoding="utf-8"?>
<!-- Generator: Adobe Illustrator 21.0.2, SVG Export Plug-In . SVG Version: 6.00 Build 0)  -->
<svg version="1.1" id="Laag_1" xmlns="http://www.w3.org/2000/svg" xmlns:xlink="http://www.w3.org/1999/xlink" x="0px" y="0px"
	 viewBox="0 0 3840 2160" style="enable-background:new 0 0 3840 2160;" xml:space="preserve">
<style type="text/css">
	.st0{fill:#EA464B;}
	.st1{fill:#FFFFFF;}
	.st2{fill:#97DCFF;}
</style>
<g>
	<polygon class="st0" points="710.5,538.8 582.6,604.4 703.4,682.4 	"/>
</g>
<g>
	<polygon points="210.8,1018.8 248,1157.7 349.7,1056 	"/>
</g>
<g>
	<polygon class="st1" points="255.8,214.6 164.9,325.9 306.8,349 	"/>
</g>
<g>
	<polygon class="st2" points="987,135.6 987,279.4 1111.5,207.5 	"/>
</g>
<g>
	<polygon class="st0" points="1466.5,1222.8 1338.6,1288.4 1459.4,1366.4 	"/>
</g>
<g>
	<polygon class="st1" points="877.8,1803.8 915,1942.7 1016.7,1841 	"/>
</g>
<g>
	<polygon class="st1" points="933.8,991.6 842.9,1102.9 984.8,1126 	"/>
</g>
<g>
	<polygon class="st2" points="2087,1046.6 2087,1190.4 2211.5,1118.5 	"/>
</g>
<g>
	<polygon points="1498.7,2098.1 1542.8,1961.2 1402.3,1991.5 	"/>
</g>
<g>
	<polygon class="st2" points="616.6,1590.3 492.1,1518.4 492.1,1662.2 	"/>
</g>
<g>
	<polygon class="st0" points="214.5,2057.8 200,1914.7 83.4,1998.8 	"/>
</g>
<g>
	<polygon class="st2" points="1482.6,781.7 1380.9,680 1343.7,818.9 	"/>
</g>
<g>
	<polygon class="st2" points="2568.5,405.8 2440.6,471.4 2561.4,549.4 	"/>
</g>
<g>
	<polygon class="st1" points="1886.8,524.8 1924,663.7 2025.7,562 	"/>
</g>
<g>
	<polygon points="1652.8,81.6 1561.9,192.9 1703.8,216 	"/>
</g>
<g>
	<polygon class="st1" points="2958,163.6 2958,307.4 3082.5,235.5 	"/>
</g>
<g>
	<polygon class="st1" points="3169.5,1329.8 3041.6,1395.4 3162.4,1473.4 	"/>
</g>
<g>
	<polygon points="2453.8,1520.8 2491,1659.7 2592.7,1558 	"/>
</g>
<g>
	<polygon class="st0" points="2791.8,858.6 2700.9,969.9 2842.8,993 	"/>
</g>
<g>
	<polygon class="st0" points="3636,940.6 3636,1084.4 3760.5,1012.5 	"/>
</g>
<g>
	<polygon class="st2" points="3656.7,1926.1 3700.8,1789.2 3560.3,1819.5 	"/>
</g>
<g>
	<polygon class="st2" points="2350.6,1990.3 2226.1,1918.4 2226.1,2062.2 	"/>
</g>
<g>
	<polygon class="st1" points="1819.5,1657.8 1805,1514.7 1688.4,1598.8 	"/>
</g>
<g>
	<polygon points="3340.6,648.7 3238.9,547 3201.7,685.9 	"/>
</g>
<g>
	<polygon class="st2" points="3664.5,163.8 3536.6,229.4 3657.4,307.4 	"/>
</g>
<g>
	<polygon class="st0" points="2316.8,16.6 2225.9,127.9 2367.8,151 	"/>
</g>
<g>
	<polygon class="st0" points="2979.5,1989.8 2965,1846.7 2848.4,1930.8 	"/>
</g>
</svg>
